if (_typeface_js && _typeface_js.loadFace) _typeface_js.loadFace({"glyphs":{"S":{"x_min":0,"x_max":518.15625,"ha":736,"o":"m 122 1166 l 127 1166 q 355 1087 216 1166 l 355 1077 l 352 1077 q 127 1152 200 1152 q 16 1028 16 1152 q 170 699 16 876 q 320 604 244 631 q 491 363 430 545 q 518 206 518 276 l 518 176 q 439 5 518 47 l 406 0 q 48 374 271 0 l 48 377 l 51 379 l 56 379 q 263 97 139 242 q 396 16 356 16 l 417 16 q 504 170 489 16 l 504 192 q 349 569 504 415 l 211 645 q 48 854 75 770 q 0 1030 0 956 q 78 1161 0 1125 l 122 1166 "},"F":{"x_min":0,"x_max":415.078125,"ha":732,"o":"m 73 1166 l 401 1166 l 415 1163 l 415 1152 l 401 1150 l 73 1150 l 73 588 l 352 588 l 360 580 l 352 575 l 73 575 l 73 13 l 70 0 l 59 0 l 56 13 l 56 575 l 8 575 l 0 583 l 8 588 l 56 588 l 56 1150 q 73 1166 56 1166 "},"T":{"x_min":0,"x_max":472.046875,"ha":916,"o":"m 13 1166 l 458 1166 l 472 1163 l 472 1158 q 455 1150 469 1150 l 244 1150 l 244 18 l 241 0 l 230 0 l 227 13 l 227 1150 l 13 1150 l 0 1152 l 0 1163 l 13 1166 "},"N":{"x_min":0,"x_max":477.46875,"ha":1054,"o":"m 2 1163 l 10 1163 q 322 390 20 1155 l 461 51 l 463 51 l 463 1150 l 466 1163 l 474 1163 l 477 1150 l 477 13 l 474 0 l 463 0 l 18 1109 l 16 1109 l 16 13 l 13 0 l 2 0 l 0 18 l 0 1144 l 2 1163 "},"K":{"x_min":0,"x_max":417.78125,"ha":937,"o":"m 2 1166 l 10 1166 l 13 1152 l 13 360 q 271 518 184 406 q 379 857 379 658 l 379 878 q 363 1058 379 956 l 371 1063 q 396 868 396 990 q 249 472 396 628 l 249 469 l 417 10 l 417 5 l 412 5 q 344 176 403 5 l 238 455 l 230 455 q 13 344 130 373 l 13 13 l 10 0 l 2 0 l 0 13 l 0 1152 l 2 1166 "},"Y":{"x_min":0,"x_max":474.75,"ha":836,"o":"m 2 1163 l 8 1163 q 111 914 15 1163 q 238 607 229 618 l 463 1163 l 472 1163 l 472 1158 l 474 1158 q 10 0 16 4 l 2 0 l 2 5 l 0 5 l 227 580 l 0 1155 l 2 1163 "},"E":{"x_min":0,"x_max":759.609375,"ha":1039,"o":"m 70 1169 l 401 1169 l 415 1166 l 415 1155 l 401 1152 l 70 1152 l 70 591 l 349 591 l 358 583 l 349 577 l 70 577 l 70 16 l 746 16 l 759 13 l 759 2 l 746 0 l 70 0 q 54 21 54 0 l 54 577 l 13 577 l 0 580 l 0 588 l 13 591 l 54 591 l 54 1147 q 70 1169 54 1169 "},"V":{"x_min":0,"x_max":360.8125,"ha":988,"o":"m 2 1161 l 13 1161 l 162 67 q 244 542 171 67 l 347 1158 l 349 1161 l 358 1161 l 360 1152 l 170 2 l 160 0 q 100 425 153 0 l 0 1152 l 2 1161 "},"Z":{"x_min":0,"x_max":534.4375,"ha":762,"o":"m 303 1169 l 529 1169 q 534 1161 534 1169 q 21 16 37 59 l 518 16 l 531 13 l 531 2 l 518 0 l 5 0 q 0 8 0 0 l 512 1152 l 303 1152 l 290 1155 l 290 1166 l 303 1169 "},"Q":{"x_min":0,"x_max":792.171875,"ha":1284,"o":"m 401 1173 l 409 1173 q 727 560 634 1173 q 748 191 748 324 l 748 188 q 697 47 748 47 l 792 -218 l 792 -223 l 784 -223 q 683 36 771 -206 l 675 42 q 425 4 531 4 q 16 318 96 4 q 0 459 0 398 q 173 1013 0 741 q 401 1173 293 1173 m 16 457 q 276 39 16 128 q 431 20 344 20 q 672 55 543 20 q 607 237 672 65 l 610 245 l 615 245 q 689 61 626 235 l 691 61 q 732 145 726 61 l 732 223 q 613 964 732 653 q 404 1159 524 1159 q 111 874 253 1159 q 16 457 16 668 "},"M":{"x_min":0,"x_max":477.46875,"ha":1077,"o":"m 2 1163 l 13 1163 l 236 222 l 238 222 q 298 466 246 230 l 463 1163 l 474 1163 l 477 1150 l 477 13 l 474 0 l 463 0 l 461 13 l 461 1074 q 398 822 452 1074 l 244 173 l 236 173 q 141 569 229 173 l 18 1074 l 16 1074 l 16 13 l 13 0 l 2 0 l 0 13 l 0 1150 l 2 1163 "},"C":{"x_min":0,"x_max":727.0625,"ha":1141,"o":"m 409 1166 q 713 659 611 1166 l 727 575 l 724 567 l 718 567 q 691 699 710 567 q 596 995 648 887 q 417 1150 509 1150 l 393 1150 q 135 919 271 1150 q 13 455 13 681 q 233 51 13 153 q 415 16 311 16 l 444 16 q 721 62 558 16 l 727 56 q 520 5 727 39 l 425 0 q 32 249 133 0 q 0 444 0 352 l 0 461 q 208 1052 0 775 q 409 1166 311 1166 "},"L":{"x_min":0,"x_max":474.75,"ha":765,"o":"m 2 1166 l 13 1166 l 16 1152 l 16 16 l 455 16 l 474 13 l 474 2 l 461 0 l 16 0 q 0 16 0 0 l 0 1152 l 2 1166 "},"A":{"x_min":0,"x_max":819.296875,"ha":1259,"o":"m 358 1171 l 537 596 l 691 596 l 705 594 l 705 588 q 689 580 702 580 l 542 580 l 819 -330 l 816 -333 l 813 -333 q 778 -236 801 -333 l 526 580 l 227 580 q 211 588 213 580 l 211 594 l 225 596 l 518 596 l 518 599 q 352 1131 366 1109 l 349 1131 l 10 8 l 8 5 l 5 5 l 0 10 l 347 1169 l 349 1171 l 358 1171 "},"J":{"x_min":0,"x_max":607.6875,"ha":972,"o":"m 390 1161 q 561 919 476 1161 q 607 610 607 761 q 265 43 607 192 q 8 0 129 0 l 0 2 l 0 18 q 122 306 112 304 l 127 306 l 127 301 l 130 301 q 16 16 23 46 l 21 16 q 537 320 390 16 q 591 599 591 451 l 591 632 q 463 1093 591 892 q 396 1144 427 1141 l 387 1144 q 303 998 333 1144 l 293 998 l 293 1003 l 290 1003 q 390 1161 322 1161 "},"O":{"x_min":0,"x_max":748.765625,"ha":1209,"o":"m 406 1169 q 710 648 615 1169 q 748 187 748 407 q 710 46 748 65 q 425 0 541 0 q 16 309 99 0 q 0 455 0 400 q 176 1011 0 739 q 406 1169 295 1169 m 16 455 l 16 450 q 233 51 16 154 q 417 16 315 16 l 431 16 q 708 62 568 16 q 732 165 732 85 l 732 208 q 626 925 732 615 q 417 1152 531 1152 l 393 1152 q 113 878 261 1152 q 16 455 16 661 "},"W":{"x_min":0,"x_max":708.0625,"ha":1377,"o":"m 2 1161 l 13 1161 l 162 67 l 168 67 q 349 1161 330 1069 l 355 1161 q 401 849 364 1161 l 510 70 l 512 70 l 694 1161 l 705 1161 l 705 1155 l 708 1155 l 515 2 l 512 0 l 510 0 q 485 141 498 0 l 355 1090 l 349 1090 q 168 2 173 2 l 165 0 q 143 108 151 0 l 0 1152 l 2 1161 "},"X":{"x_min":0,"x_max":474.75,"ha":916,"o":"m 2 1163 l 8 1163 q 206 675 18 1155 q 238 607 231 610 l 463 1163 l 472 1163 l 472 1158 l 474 1158 q 246 577 249 594 l 246 575 l 474 8 l 472 0 l 461 0 q 236 556 246 546 l 10 0 l 5 0 l 2 2 l 0 2 l 227 583 l 0 1155 l 2 1163 "},"P":{"x_min":0,"x_max":322.828125,"ha":760,"o":"m 56 1169 q 314 982 254 1169 l 322 922 q 78 583 322 727 l 16 556 l 16 13 l 13 0 l 8 0 q 0 16 0 2 l 0 1147 q 54 1169 0 1169 l 56 1169 m 16 1147 l 16 575 l 21 575 q 282 805 210 651 q 306 922 306 860 q 105 1150 306 1106 l 62 1152 l 21 1152 l 16 1147 "},"B":{"x_min":0,"x_max":640.25,"ha":931,"o":"m 84 1169 q 436 946 342 1169 q 453 843 453 889 q 398 645 453 758 q 640 249 640 418 q 306 18 640 77 q 13 0 176 0 l 8 8 l 8 341 q 0 347 0 341 l 0 349 l 8 360 l 8 1144 l 0 1155 l 0 1161 q 84 1169 29 1169 m 24 1150 l 24 368 l 29 368 q 406 699 311 486 q 436 830 436 770 l 436 862 q 279 1109 436 1012 q 92 1152 191 1152 l 37 1152 l 24 1150 m 24 349 l 24 16 l 54 16 q 607 181 508 16 q 623 241 623 217 l 623 268 q 393 629 623 411 l 387 629 q 24 349 255 442 "},"H":{"x_min":0,"x_max":534.4375,"ha":1071,"o":"m 2 1163 l 13 1163 l 16 1150 l 16 13 l 13 0 l 2 0 l 0 13 l 0 1150 l 2 1163 m 463 1163 l 474 1163 l 477 1150 l 477 588 l 526 588 l 534 580 l 526 575 l 477 575 l 477 13 l 474 0 l 463 0 l 461 13 l 461 575 l 73 575 l 59 577 l 59 585 l 73 588 l 461 588 l 461 1150 l 463 1163 "},"D":{"x_min":0,"x_max":602.265625,"ha":1030,"o":"m 100 1169 q 558 903 415 1169 q 602 708 602 802 l 602 691 q 225 105 602 367 q 10 0 36 0 l 2 0 l 0 13 l 0 1144 q 54 1166 0 1166 l 100 1169 m 16 1147 l 16 18 l 18 18 q 260 146 108 48 q 588 699 588 394 q 328 1109 588 975 q 100 1152 221 1152 q 16 1147 49 1152 "},"R":{"x_min":0,"x_max":469.328125,"ha":870,"o":"m 54 1166 q 311 979 251 1166 l 320 919 q 217 683 320 807 l 469 5 l 469 0 l 461 0 q 349 290 447 16 l 203 670 q 29 558 121 602 q 13 550 13 557 l 13 13 l 10 0 l 5 0 l 0 5 l 0 1147 q 43 1166 0 1166 l 54 1166 m 13 1144 l 13 572 l 16 572 q 206 702 149 624 q 271 784 221 702 q 303 925 303 853 q 122 1144 303 1088 l 67 1150 l 18 1150 l 13 1144 "},"I":{"x_min":0,"x_max":16.28125,"ha":446,"o":"m 2 1163 l 13 1163 l 16 1150 l 16 13 l 13 0 l 2 0 l 0 13 l 0 1150 l 2 1163 "},"G":{"x_min":0,"x_max":727.0625,"ha":1141,"o":"m 409 1166 q 710 672 611 1166 q 727 569 727 596 l 724 567 l 716 567 q 634 911 680 779 q 420 1150 537 1150 l 398 1150 q 119 884 260 1150 q 16 455 16 670 l 16 450 q 233 51 16 154 q 409 16 318 16 l 444 16 q 710 62 573 16 l 542 520 l 542 526 l 550 526 q 727 59 556 526 l 727 54 q 553 10 727 42 q 425 0 493 0 q 16 309 99 0 q 0 455 0 400 q 149 968 0 708 q 409 1166 279 1166 "},"U":{"x_min":0,"x_max":420.5,"ha":1018,"o":"m 48 1166 l 51 1158 q 16 594 16 855 l 16 583 q 135 37 16 137 q 187 16 164 16 l 214 16 q 377 295 321 16 q 404 699 404 462 q 382 1158 404 948 l 385 1166 l 396 1166 q 420 699 420 937 q 282 32 420 162 q 198 0 246 0 q 5 434 33 0 l 0 591 q 37 1163 0 844 l 40 1166 l 48 1166 "}}}
